<svg width="279" height="69" viewBox="0 0 279 69" fill="none" xmlns="http://www.w3.org/2000/svg">
<path d="M78.4181 57.3379V65.9512H53.296V57.3379H78.4181ZM57.09 16.1855V65.9512H45.9474V16.1855H57.09ZM94.5851 28.9688V65.9512H83.8868V28.9688H94.5851ZM83.2374 19.3984C83.2374 17.849 83.7843 16.5843 84.8781 15.6045C85.9718 14.6019 87.4074 14.1006 89.1847 14.1006C90.962 14.1006 92.3976 14.6019 93.4913 15.6045C94.6079 16.5843 95.1661 17.849 95.1661 19.3984C95.1661 20.9251 94.6079 22.1898 93.4913 23.1924C92.3976 24.1722 90.962 24.6621 89.1847 24.6621C87.4074 24.6621 85.9718 24.1722 84.8781 23.1924C83.7843 22.1898 83.2374 20.9251 83.2374 19.3984ZM112.735 36.8643V65.9512H102.036V28.9688H112.085L112.735 36.8643ZM111.333 46.1611L108.667 46.2295C108.667 43.4495 109.009 40.9544 109.693 38.7441C110.376 36.5339 111.345 34.654 112.598 33.1045C113.874 31.5322 115.389 30.3359 117.144 29.5156C118.921 28.6953 120.881 28.2852 123.023 28.2852C124.754 28.2852 126.338 28.5358 127.774 29.0371C129.209 29.5384 130.44 30.3473 131.465 31.4639C132.513 32.5576 133.311 34.016 133.858 35.8389C134.404 37.639 134.678 39.8607 134.678 42.5039V65.9512H123.945V42.4697C123.945 40.9202 123.729 39.724 123.296 38.8809C122.863 38.0378 122.225 37.4453 121.382 37.1035C120.562 36.7617 119.559 36.5908 118.374 36.5908C117.121 36.5908 116.05 36.8415 115.161 37.3428C114.273 37.8213 113.543 38.4935 112.974 39.3594C112.404 40.2253 111.983 41.2393 111.709 42.4014C111.458 43.5635 111.333 44.8167 111.333 46.1611ZM152.383 13.417V65.9512H141.685V13.417H152.383ZM175.864 28.9688L159.766 47.5625L151.255 56.1074L146.983 48.8955L153.887 39.9746L163.013 28.9688H175.864ZM164.585 65.9512L154.16 48.9639L161.817 42.9824L176.821 65.9512H164.585ZM177.984 47.8359V47.1182C177.984 44.4066 178.371 41.9115 179.146 39.6328C179.92 37.3314 181.06 35.3376 182.564 33.6514C184.068 31.9652 185.913 30.6549 188.101 29.7207C190.288 28.7637 192.795 28.2852 195.62 28.2852C198.491 28.2852 201.021 28.7637 203.208 29.7207C205.418 30.6549 207.276 31.9652 208.779 33.6514C210.283 35.3376 211.423 37.3314 212.197 39.6328C212.972 41.9115 213.359 44.4066 213.359 47.1182V47.8359C213.359 50.5247 212.972 53.0199 212.197 55.3213C211.423 57.5999 210.283 59.5938 208.779 61.3027C207.276 62.9889 205.43 64.2992 203.242 65.2334C201.055 66.1676 198.537 66.6348 195.689 66.6348C192.863 66.6348 190.345 66.1676 188.135 65.2334C185.925 64.2992 184.068 62.9889 182.564 61.3027C181.06 59.5938 179.92 57.5999 179.146 55.3213C178.371 53.0199 177.984 50.5247 177.984 47.8359ZM188.682 47.1182V47.8359C188.682 49.2943 188.796 50.6615 189.024 51.9375C189.274 53.2135 189.673 54.3301 190.22 55.2871C190.767 56.2441 191.484 56.9961 192.373 57.543C193.285 58.0671 194.39 58.3291 195.689 58.3291C196.987 58.3291 198.081 58.0671 198.97 57.543C199.859 56.9961 200.576 56.2441 201.123 55.2871C201.67 54.3301 202.057 53.2135 202.285 51.9375C202.536 50.6615 202.661 49.2943 202.661 47.8359V47.1182C202.661 45.6826 202.536 44.3382 202.285 43.085C202.057 41.8089 201.67 40.681 201.123 39.7012C200.576 38.7214 199.847 37.958 198.936 37.4111C198.047 36.8643 196.942 36.5908 195.62 36.5908C194.344 36.5908 193.262 36.8643 192.373 37.4111C191.484 37.958 190.767 38.7214 190.22 39.7012C189.673 40.681 189.274 41.8089 189.024 43.085C188.796 44.3382 188.682 45.6826 188.682 47.1182ZM229.663 37.582V65.9512H218.999V28.9688H229.014L229.663 37.582ZM240.703 28.6953L240.532 38.6416C240.077 38.5732 239.484 38.5163 238.755 38.4707C238.026 38.4023 237.399 38.3682 236.875 38.3682C235.508 38.3682 234.323 38.5391 233.32 38.8809C232.341 39.1999 231.52 39.6784 230.859 40.3164C230.221 40.9544 229.743 41.752 229.424 42.709C229.105 43.6432 228.945 44.7256 228.945 45.9561L226.929 44.9648C226.929 42.5267 227.168 40.2936 227.647 38.2656C228.125 36.2376 228.82 34.4831 229.732 33.002C230.643 31.498 231.76 30.3359 233.081 29.5156C234.403 28.6953 235.907 28.2852 237.593 28.2852C238.14 28.2852 238.698 28.3193 239.268 28.3877C239.837 28.4561 240.316 28.5586 240.703 28.6953ZM263.569 57.1328V41.2734C263.569 40.1569 263.399 39.1999 263.057 38.4023C262.715 37.6048 262.179 36.9782 261.45 36.5225C260.721 36.0667 259.776 35.8389 258.613 35.8389C257.634 35.8389 256.779 36.0098 256.05 36.3516C255.344 36.6934 254.797 37.1833 254.409 37.8213C254.045 38.4593 253.862 39.2454 253.862 40.1797H243.198C243.198 38.5163 243.574 36.9668 244.326 35.5312C245.078 34.0957 246.149 32.8311 247.539 31.7373C248.952 30.6436 250.638 29.8005 252.598 29.208C254.557 28.5928 256.756 28.2852 259.194 28.2852C262.088 28.2852 264.663 28.7751 266.919 29.7549C269.198 30.7119 270.998 32.1589 272.319 34.0957C273.641 36.0098 274.302 38.4251 274.302 41.3418V56.8252C274.302 59.0583 274.427 60.8128 274.678 62.0889C274.951 63.3421 275.339 64.4359 275.84 65.3701V65.9512H265.073C264.572 64.8802 264.196 63.5586 263.945 61.9863C263.695 60.3913 263.569 58.7734 263.569 57.1328ZM264.902 43.3926L264.971 49.2715H259.673C258.488 49.2715 257.463 49.4196 256.597 49.7158C255.754 50.012 255.07 50.4222 254.546 50.9463C254.022 51.4476 253.635 52.04 253.384 52.7236C253.156 53.3844 253.042 54.1136 253.042 54.9111C253.042 55.6631 253.224 56.3467 253.589 56.9619C253.954 57.5544 254.455 58.0215 255.093 58.3633C255.731 58.7051 256.471 58.876 257.315 58.876C258.705 58.876 259.889 58.6025 260.869 58.0557C261.872 57.5088 262.647 56.848 263.193 56.0732C263.74 55.2757 264.014 54.5352 264.014 53.8516L266.577 58.2949C266.167 59.2064 265.666 60.152 265.073 61.1318C264.481 62.0889 263.729 62.9889 262.818 63.832C261.906 64.6523 260.801 65.3245 259.502 65.8486C258.226 66.3727 256.688 66.6348 254.888 66.6348C252.564 66.6348 250.456 66.1676 248.565 65.2334C246.673 64.2764 245.158 62.9661 244.019 61.3027C242.902 59.6393 242.344 57.7253 242.344 55.5605C242.344 53.6237 242.697 51.9033 243.403 50.3994C244.11 48.8955 245.169 47.6195 246.582 46.5713C248.018 45.5231 249.818 44.737 251.983 44.2129C254.147 43.666 256.677 43.3926 259.57 43.3926H264.902Z" fill="white"/>
<ellipse cx="7.76712" cy="22.8915" rx="7.76712" ry="6.39765" fill="white"/>
<ellipse cx="32.705" cy="40.2128" rx="7.76712" ry="6.39765" fill="white"/>
<line y1="-1.5" x2="20.577" y2="-1.5" transform="matrix(0.807954 0.589246 -0.724072 0.689724 10.3909 26.887)" stroke="white" stroke-width="3"/>
<ellipse cx="7.76712" cy="57.5341" rx="7.76712" ry="6.39765" fill="white"/>
<line y1="-1.5" x2="17.8828" y2="-1.5" transform="matrix(0.816046 -0.577987 0.714018 0.700127 14.1132 54.5601)" stroke="white" stroke-width="3"/>
</svg>
